<svg id="Layer_2" data-name="Layer 2" xmlns="http://www.w3.org/2000/svg" width="781.162" height="861.755" viewBox="0 0 781.162 861.755">
  <g id="Layer_1" data-name="Layer 1" transform="translate(0 0)">
    <path id="Path_4795" data-name="Path 4795" d="M118.564,592.817h261.7c13.125-21.675,22.394-44.17,16.5-70.4-4.835-21.536-5.993-43.61-8.65-65.465a182.293,182.293,0,0,1-1.538-26.67c4.275,22.834,5.773,45.948,8.53,69,3.136,26.25,8.331,31.045,34.92,31.624a123.4,123.4,0,0,0,40.254-6.393c19.258-6.133,23.433-13.045,20.736-34.4-4.155-32.823-7.991-65.685-13.225-98.348-1.578-9.989-1.478-19.977-3.276-29.726-6.513-35.8-29.626-50.942-65.026-42.472-2.857.679-5.514,2.1-8.71,2.217,3.336-4.455,11.986-5.274,10.288-12.246-1.319-5.194-7.991-6.233-12.885-7.991-4-1.418-8.151-2.337-11.986-4-17.98-8.331-32.143-7.352-49.583,6.732-29.746,23.973-65.685,25.231-101.484,12.106-11.307-4.135-18.279-12.626-17.26-25.351,1.059-13.045-6.453-18.379-17.44-19.757-34.341-4.335-65.086-1.838-86.921,31.964C92.474,335.83,67.7,366.016,43.869,396.721c-9.229,11.887-9.549,21.555-.44,33.722,10.248,13.684,21.036,26.19,36.5,33.961,24.232,12.126,42.991,2,45.568-25.291,1.458-15.163.479-30.445.459-45.688a126.6,126.6,0,0,1,3.176-28.108c2-9.169,4.155-18.339,7.571-25.071a301.376,301.376,0,0,0-9.849,68.322q-.779,36.229,0,72.477a407.394,407.394,0,0,1-7.991,84.424C117.245,574.259,112.79,583.628,118.564,592.817Z" transform="translate(215.948 268.938)" fill="#2a292d"/>
    <path id="Path_4796" data-name="Path 4796" d="M334.512,861.816c12.686-55.037,14.324-110.914,12.606-167.03-.979-31.6,3.816-62.449,11.647-92.934.459-1.778,0-3.8,0-8.151-16.381,18.958-19.538,39.954-20.916,61.25-1.059,16.221-.4,32.563-.18,48.844a32.782,32.782,0,0,1-4.355,17.98c-7.492,12.546-16.681,16.561-31.165,10.308-21.635-9.329-33.522-27.748-46.607-45.368-3.456-4.655,0-7.991,2.277-11.187q42.671-57.195,85.642-114.15c9.15-12.106,21.975-17.56,36.838-17.979,9.449-.28,18.918-.44,28.348,0,12.266.559,23.813.819,20.876,19.657-2,12.825,7.991,21.076,19.058,26.09,37.7,16.961,89.258,7.651,117.866-21.875,5.174-5.334,9.229-5.154,15.163-3.057,14.4,5.074,28.867,9.629,43.73,14.543-5.394,7.671-16.821,6.852-20.617,16.481,5.654,3.456,10.668.859,15.982-.819,39.655-12.586,63.288,4.755,67.223,46.627,3.636,38.876,9.389,77.591,15.043,116.247,3.2,21.975,1.318,26.39-20.3,32.783a155.808,155.808,0,0,1-22.854,5.254c-33.642,4.655-41.812-2.158-44.809-35.819-1.838-20.776-4.115-41.533-6.493-62.249-.4-3.476-2.317-6.772-3.576-10.208-6.652,2-9.729,6.533-8.51,12.126,7.312,33.322,1.758,68.682,15.982,100.925.9,2-.12,5.074-.8,7.511-5.094,18.079-10.308,36.139-15.5,54.2H611.9c9.569-9.11,13.984-21.855,22.594-31.744,10.828-12.446,22.315-22.994,39.954-24.971,9.409-1.059,12.186,2.157,12.206,10.828,0,9.989-2.577,19.618-3.576,29.446-.539,5.554-3.256,11.307,1.338,16.441H694c7.411-19.138,6.353-39.175,6.233-59.093,0-5.394-.419-10.768,6.233-12.486,10.208-2.617,10.428-9.989,9.329-18.319-6.433-49.3-12.406-98.667-19.418-147.831-3.236-22.854-17.979-37.2-39.3-44.709-27.129-9.569-54.558-18.279-81.487-28.308-3.6-1.339-12.466,2.637-11.227-6.732s-1.538-21.5,9.469-26.19c36.638-15.7,62.669-41.093,76.153-78.71,2.317-6.513,6.832-6.473,12.366-6.433,52.72.439,96.45-59.932,79.749-110.594-1.838-5.614.42-7.511,3.4-10.408,14.384-13.984,15.8-30.8,15.982-50.163.2-14.623-2-33.042,13.984-44.25,4.495-3.236,4.934-8.79,5.694-15.043-18.739,3.376-21.815-4.954-18.639-21.5a42.731,42.731,0,0,0-12.486-38.936c-5.094-4.994-4.135-7.052,0-11.986,5.094-6.253,11.707-15.862-5.294-15.143-6.752.3-7.991-4-8.87-8.59-1.378-7.392-3.276-15.1-9.15-19.5-12.206-9.15-26.57-15.5-27.968-34.121-.42-5.993-6.892-5.394-10.728-1.139-7.791,8.65-11.886,5.054-16.981-3.3-9.549-15.622-24.712-21.855-42.631-21.975-8.37,0-16.781-.439-25.111.1s-15.183-.619-19.2-9.449a13.644,13.644,0,0,0-8.37-6.692C557.977,6.472,539.278,8.469,521.918.6c-3.836-1.738-15.562.4-6.393,11.447,4.795,5.773,0,7.851-5.694,8.37-7.991.7-15.5-1.858-23.134-3.556a40.735,40.735,0,0,1-6.133-1.3c-20.836-8.291-32.843,14.663-51.941,14.344-21.1-.36-28.547,15.3-39.035,31.964-7.891,12.466-23.313,20.6-25.071,38.316-.22,2.217-4.2,2.257-6.932,1.4-12.945-4.115-21.2,1.259-17.6,13.984,4.655,16.7-.759,30.226-7.991,43.61-6.313,11.667,1.1,22.295,1.378,33.282.4,16.941-7.991,37.417,14.583,49.943-20.7,1.219-23.094,5.993-13.7,22.315,2.737,4.735,2.7,9.989,3.256,15.223,4.515,42.731,2.177,85.762,5.733,128.613A175.181,175.181,0,0,0,372.249,491.7c8.79,13.425,17.68,26.77,29.047,43.95-48.465-13.225-67.423,19.7-88.9,49.144-20.7,28.368-42.432,55.936-63.008,84.464-5.254,7.252-8.87,7.651-16.182,3.276q-49.943-29.966-100.425-58.713c-8.45-4.775-13.485-10.508-15.662-19.977-5.634-24.352-16.881-47.606-13.005-73.716.819-5.574-1.8-10.728-8.171-11.527-7.511-.939-13.2,2.777-17.041,9.07-5.174,8.47-4,18.279-5.234,27.568-1.079,7.851-.14,15.842-11.986,6.313S34.734,545,20.75,547a11.167,11.167,0,0,0-8.45,8.67C6.526,579.638-5.68,602.711,3.05,628.6c4.215,12.566,12.865,20.856,24.972,23.973,21.336,5.534,43.171,10.568,65.286,5.993,7.851-1.6,10.468,2.837,14.3,6.592,27.309,26.889,51.941,56.456,81.447,81.147,18.639,15.6,37.957,29.566,62.808,33.961,15.482,2.717,27.788-.919,37.957-12.905,5.074-5.993,10.848-11.427,16.421-17,2.517-2.537,5.234-6.912,9.05-4.695,11.067,6.493,15.5-2.3,21.975-11.846,2,40.354-3.336,76.433-10.128,112.372-.979,5.114-1.418,10.348-2,15.522Z" transform="translate(0 -0.061)" fill="#010101"/>
    <path id="Path_4797" data-name="Path 4797" d="M117.947,462.7a257.7,257.7,0,0,0,5.993-54.238c0-7.991-2.217-8.87-9.989-8.171C74.976,403.8,58.815,431.591,45.37,462.7Z" transform="translate(566.585 399.06)" fill="#fcb185"/>
    <path id="Path_4798" data-name="Path 4798" d="M173.016,321.318l10.128-5.574c3.756-3.216,7.991-1.538,12.146-1.318,36.279,8.93,56.3,39.855,54.718,70.759a202.169,202.169,0,0,0-.2,25.091c-3.576,25.211-19.178,43.95-35.16,61.929-9.489,10.688-23.194,10.408-33.682.659-34.7-32.323-50.223-96.11-21.376-139.6C163.027,327.991,165.465,321.878,173.016,321.318Z" transform="translate(242.788 312.956)" fill="#00c89b"/>
    <path id="Path_4799" data-name="Path 4799" d="M174.391,318.331C148,342.843,144.825,374.267,150.7,406.77A109.456,109.456,0,0,0,181.143,466c11.267,11.127,23.493,11.527,34.421,0,15.982-16.821,29.307-35.52,33.841-59.053a7.531,7.531,0,0,1,.46-6.692c2.677-.26,4.595.26,3.736,3.616-2.1,28.507-19.678,49.144-37.058,69.1-9.369,10.728-23.393,9.889-33.961,0-35.4-32.7-56.156-95.631-22.115-146.972C163.064,322.126,165.581,313.217,174.391,318.331Z" transform="translate(241.413 315.944)" fill="#101a10"/>
    <path id="Path_4800" data-name="Path 4800" d="M172.958,403.864l1.259,6.093c4.415-6.692,2.1-14.184,2.158-21.276.2-33.022,10.428-59.153,45.468-69.241a20.694,20.694,0,0,0,5.094-3.376c-7.032-4.575-13.025-1.558-18.858,2.6-9.589,5.993-18.539,12.746-25.211,22.095C167.944,359.954,168,381.509,172.958,403.864Z" transform="translate(214.653 312.937)" fill="#24c69b"/>
    <path id="Path_4801" data-name="Path 4801" d="M198.274,391.041c1.418-21.336-2.477-43.51,9.989-63.108a2.657,2.657,0,0,0-4.854.659c-9.509,20.976-15.562,42.412-7.991,65.485Z" transform="translate(189.337 325.76)" fill="#1f291f"/>
    <path id="Path_4802" data-name="Path 4802" d="M163.85,319.6c6.393-.12,12.166-4.675,18.859-2.6l12.166-.3a25.851,25.851,0,0,0-31.025,2.9Z" transform="translate(258.961 312.001)" fill="#090a09"/>
    <path id="Path_4803" data-name="Path 4803" d="M354.022,161.078c1.1-13.744-5.993-22.554-17.26-29.007-3.116-1.778-8.97-2.457-5.733-8.75,6.473-12.646-3.836-39.675-17.22-45.348-2.417-1.019-5.414-2.9-7.232-.739-2.557,3.037,3.1,4.874,2,9.589-12.186-8.69-25.091-13.824-39.954-9.209-3.037.939-5.634,0-5.594-3.156.16-11.107-7.691-22.814-6.353-30.885,2.857-17.32-9.989-11.247-15.682-14.284-7.631-4-10.908,2.457-12.945,8.85-1.318,6.513,4.355,6.173,7.711,7.172a33.961,33.961,0,0,1,19.977,16.541c-7.991-13.385-19.977-18.858-35.44-16.7-2,.28-2.277,0-2-.4,9.19-9.789-2.477-11.367-6.273-15.982l-28.288-3.017C179.341,8.272,165.2,10.41,152.272,10.09l-12.925,5.993c-7.831,10.288,1.458,8.33,6.133,7.791,12.226-1.418,21.815,2.217,27.668,13.165,2.2,4.135,5.813,9.989-3.276,11.427-5.993-9.549-13.984-15.5-25.97-13.984-5.993.739-6.513.479-7.991,9.05-.36,2.237-1.239.5-1.378,1.039-10.948-3.1-21.575,4.275-32.443,1.059-.36-.26-.959-.42-1.239-.8-1.079-1.518-.779-.8.8-.779,9.989.2,17.82-5.314,25.171-11.167,4.655-3.736,8.35-8.45,2.377-14.344-5.574,6.353-18.279-1.139-21.256,10.828,0,.42-3.676-2-5.753-2.857-16.421-6.792-32.882-11.327-49.583-.819-5.893,4.595-4.834,11.147-4.675,17.3.12,4.815-1,7.152-6.113,4.535a18.239,18.239,0,0,0-13.025,2.337c-6.393,8.83-9.469,16.681,5.654,19.158,7.192,5.354,6.672,19.757,19.977,17.34,2.517.5-.559,3.376.5,1.538,0-.16-.22-.38-1-.6-4.914-1.378-10.108-2.1-13.565-6.592-3.017-3.9-6.253-7.531-11.047-2-1.758-2-.8-5.554-4.115-6.473C12.731,77.893,11.432,88.72,13.91,99.888c2.577,11.667,10.788,19.038,22.814,20.756,13.764,2,27.189.18,39.335-7.072,8.83-5.254,17.82-11.447,25.811.16,7.252,10.488,2.957,19.777-5.474,27.728-1.139,1.079-2.178,2.237-3.216,3.436-2.6,5.753-10.967,10.348-5.674,17.76,4.735,6.632,12.925,6.592,20.177,5.454,18.439-2.9,29.526-15.542,35.859-31.564,5.154-13.025,8.251-27.329-4.635-38.876a4,4,0,0,0-4.235,4.954c1.838,8.67-4.375-2.457-4.155,1.8-4.395,3.276-.779,7.991-2,11.587.2-4.455-2.557-9.809,3.236-13.025C127.3,87.422,115.294,79.85,94.478,79.531a8.231,8.231,0,0,0-1.578.3,2.776,2.776,0,0,1,.8-.479c5.993.24,11.447-2,17.18-2.178C131.1,76.195,147.417,88.2,151.692,108c2.977,13.8,6.233,27.389,14.8,39.015,4.755,8.75,14.1,7.372,21.735,9.829-18.279,6.453-25.371-7.112-33.662-18.679-1.6-2.237-3.736-3.716-6.573-1.578-6.852,16.182,1.718,27.189,13.045,36.578,12.765,10.568,26.27,10.108,36.4,2-3.456,1.818-4.375,7.032.519,12.126,8.43,8.77,19.2,13.5,31.184,10.268,11.127-2.957,21.575-8.111,22.195-22.374-7.132-5.853-10.408,3.256-15.822,4,2.357-10.868,5.634-11.986,14.743-5.314,6.752.3,4.854-4.974,5.514-8.291,3.656,11.587,4.395,22.954-4.994,33a11.767,11.767,0,0,0-2.717,11.787c5.594,16.9,9.03,33.961,8.37,51.941-.42,11.986,11.447,17.979,16.781,27.369s20.117,4.495,30.505,7.012h19.118c-8.231-7.751-13.165-16.221-11.047-28.587,1-5.813-6.493-8.67-10.987-12.126-2.377-1.818-5.873-4.135-2.577-7.392s6.752-1.179,9.249,1.9c3.057,3.736,3.876,8.47,5.354,12.885,2,5.993,5.314,10.368,12.186,9.989,6.173-.34,9.11,1.2,9.989,8.271.839,6.533,6.113,9.19,12.765,5.394,2.477-5.114,6.173-9.829,6.273-15.842.14-9.11,2.637-19.418-11.986-20.4-3.236-.22-7.751-2.217-8.39-6.213-.979-5.993,4.735-3.856,7.611-5.094,5.134-2.2,9.15-5.494,9.409-11.367.519-11.986-13.005-3.4-16.721-12.586,15.263,5.374,16.581-9.689,23.973-15.8,4-3.336-6.572-11.986-4-19.618-3.076-2-5.993-.619-9.01.34-19.977,6.433-19.977,6.433-38.9-2.118,17.4,4.016,29.686-5.913,25.85-20.576-2-7.651-5.654-8.251-10.528-2-8.111,9.569-14.663,2.417-21.076-2.3-2.877-2-3.276-6.513-5.993-8.97s-6.173-3.876-7.771,1.558c-2.877-.979-.8-3.316-1.3-4.954-2.138-6.932.14-15.842-5.274-17.979,9.21,5.374,11.647,20.856,21.8,30.086,8.39,4.275,15.782,6.533,23.853-2.178s11.207.979,14.5,6.293C343.673,163.075,346.111,171.426,354.022,161.078Z" transform="translate(396.595 9.945)" fill="#272b2b"/>
    <path id="Path_4804" data-name="Path 4804" d="M90.7,98.274C78.717,119.17,62,138.229,62.735,164.339c.12,4.2-6.772,12.466,5.234,11.547,33.841-20.676,69.8-18.918,87.9,5.494-13.325-2.757-24.392-8.57-36.179-12.106-9.669-2.9-19.358-4.914-29.267-2.677-4.974,1.139-11.747.959-12.086,8.87l21.156.919c3.856,7.112,11.547,5.833,17.64,7.991,7.212,2.637,15.183,3.636,20.836,9.629s11.487,11.347,19.458,13.884c20.836,9.869,41.513,6.093,62.149-.619,23.873-5.733,46.467.3,69,7.292,5.853,1.838,11.367,5.674,17.98,3.436,4.2-8.231-2.7-11.167-7.511-14.244a64.867,64.867,0,0,0-35.819-9.989c-13.984,0-28.108.44-43.411-.5,24.872-21.635,74.615-4.735,95.891,31.025,9.989,7.831,22.135,9.309,34.221,9.989,10.668.639,14.5-4.335,9.349-13.045-5.454-9.249-4.455-18.719-5.614-28.527-2-17.14-11.347-32.243-19.7-47.306-.519-.919-1.518-2.118-2.337-2-23.733,5.074-37.537-21.216-61.05-18.839-11.287,1.139-22.554-4.415-32.123-11.407-7.372-5.394-14.963-7.072-23.593-3.1a27.968,27.968,0,0,1-13.824,2.617c-6.912-.519-14.743-1.119-17.979-7.631s7.152-6.053,8.43-11.127a18.119,18.119,0,0,1,4-6.772c-1.418-16.581-13.624-26.47-28.208-20.357s-28.527,9.269-43.77,3.756A8.79,8.79,0,0,0,112.4,73.982C106.745,83.571,96.816,89.2,90.7,98.274Z" transform="translate(298.007 64.698)" fill="#fdb185"/>
    <path id="Path_4805" data-name="Path 4805" d="M369.025,178.9l-19.558,3.376c-5.154,2.677-7.392,7.571-8.47,12.686-4.675,21.815-21.036,35.659-34.481,51.521-6.612,7.791-16.441,8.81-25.051,12.346-5.234,2.138-7.631-1.638-9.849-5.354-11.267-18.878-29.466-24.232-49.663-24.912-21.5-.719-43.011.28-64.506-.5-6.133-.539-10.648-4.675-15.862-7.212-8.55-2.158-16.541-5.993-24.912-8.63-14.244-4.555-27.728-1.718-36.578,9.789C72.383,232,66.25,233.258,57.4,225.107c0,23.054,1.219,45.428,19.418,63.248,3.876,3.8,2.337,12.745,5.893,17.28C95.776,322.3,108,339.856,123.944,353.98c13.744,12.166,53.059,7.272,70.08.9,11.747-4.395,13.844-13.824,21.216-19.857,4.775,5.214-2.158,9.229.8,15.722,38.3-12.286,77.472-22.714,106.139-54.518a21.975,21.975,0,0,0,5.054-7.991c5.194-17.46,19.058-29.966,25.97-46.487C363.271,222.051,372.6,202.133,369.025,178.9Z" transform="translate(296.689 178.371)" fill="#191b1b"/>
    <path id="Path_4806" data-name="Path 4806" d="M240.932,384.877c27.728,7.631,55.437,16.941,85.443-.719-3.616,11.027,3.456,15.442,8.71,20.736C360.2,430.285,383.63,457.374,411,480.408c5.993,5.074,12.086,10.148,18.5,14.663,37.058,26.09,56.2,23.493,86.322-12.845-10.608-.44-16.142-18.179-31.464-5.993-4.535-37-35.959-50.862-64.766-67.423-25.97-14.9-51.481-30.325-77.532-44.909-8.53-4.755-13.565-11.087-15.4-20.357-5.234-26.47-19.857-51.142-15.3-79.549.26-1.6-1.558-5.074-2.237-5.014a10.328,10.328,0,0,0-6.832,2.5,19.977,19.977,0,0,0-4.794,14.583c1.2,16.521-6.812,31.085-9.849,46.707-8.311,13.984-3.556,24.792,5.174,31.824-2.217-2.237-9.13-8.59-12.825.819-7.132,18.119-22.275,21.775-38.057,25.731a2.937,2.937,0,0,0-1,3.736Z" transform="translate(-215.368 258.268)" fill="#fdb185"/>
    <path id="Path_4807" data-name="Path 4807" d="M88.791,266.677c21.975,3.416,43.95-.539,65.925.9s43.43,4.675,50.762,30.745c.739,2.637,2.7,5.993,5.074,3.816,8.211-7.711,20.5-6.253,28.727-14.424,20.277-20.157,38.616-41.193,43.95-70.54-2.7-.6-7.252,0-4-5.014,8.93-13.245,7.072-28.368,7.711-43.051-16.641-5.733-25.651-2.4-33.1,12.666-5.793,11.707-10.708,23.973-20.8,32.9-21.256,18.839-48.425,21.655-76.033,7.991q-35.959-17.74-31.964-62.189a19.237,19.237,0,0,0-.38-6.233,16.541,16.541,0,0,0-8.87-9.05,16.9,16.9,0,0,0-15.263,1.219c-4.954,5.993-4.974,13.7-6.193,20.736a103.7,103.7,0,0,1-18.459,42.711c-7.631,10.788-14.863,22.115-6.373,35.959,9.369,10.568,20.656,15.243,34.76,11.007,4.735-1.418,9.229.36,13.824.939,5.634.7,11.507,1.878,15.283-4-4,6.153-9.989,5.614-15.822,4a31.024,31.024,0,0,0-21.176,2C93.006,261.143,88.411,261.223,88.791,266.677Z" transform="translate(362.987 143.474)" fill="#fdb185"/>
    <path id="Path_4808" data-name="Path 4808" d="M54.416,256.747c-6.912,37.517,10.528,66.085,47.006,76.932,36.119,10.768,71.818-4.854,84.524-40.154,6.333-17.62,15.542-24.692,33.182-22.714,6.812-5.134,14.7-1.5,21.975-2.657-6.692-8.93-17.021-4-23.493-7.352,12.466.839,26.29,4.815,38.4,5.993,4.115.739,1.378,3.716,2.257,1.8.36-.779,0-1.3-.8-1.338-5.474-.32-11.087-2.857-16.361.859-2.277,3.736-6.113,3.037-9.589,3.3,4.934,10.488,11.866,7.691,19.1,2.837,4.475-4.914,10.408-3.056,15.6-2.677,7.991.559-.22-5.673,3.256-6.592-2.737-1.338-5.534-4-8.171-3.836-16.221.879-22.275-12.506-31.5-21.515-3.7-3.616-4.455-7.991-4.595-12.785-.24-8.79,8.251-19.278-4.675-25.771,10.588-12.346-15.622-29.706,6.173-41.672,5.773-3.136,1.778-17.64-5.574-30.445-4.775,3.017.439,10.488-5.594,12.666v.18c-7.471,19.558-22.095,25.97-40.514,17.62-12.586-5.534-13.245-9.529-3.456-18.8a18.818,18.818,0,0,0,4.495-6.712c-14.424,6.473-27.968,18.1-44.569,6.652-12.646-8.65-18.878-20.636-16.481-36.379,8.79-1.638,9.05,12.865,18.6,9.829-7.132-15.682-9.289-32.982-15.2-48.864C110.072,42.771,85,36.459,55.334,46.867c17.56,2,33.761,7.312,47.146,19.418,10.348,16.781,8.211,36.119-5.694,51.481C82.224,133.867,72,136.385,54.1,128.214c.7-5.773,8.43-8.251,7.212-14.943a2.2,2.2,0,0,0-.519-3.836c-3.6,8.97-9.649,13.664-20.5,9.869,8.73,17.56,22.374,23.054,42.252,16.6,8.75-2.877,15.263-3.216,21.835,4.115,2.977,3.336,7.991,6.812,12.106,6.812,27.389,0,49.943,16.821,76.053,21.456,11.047,2,11.846,16.1,16.541,24.872,5.833,10.908,13.005,22.454,7.392,36.3-.8,2,1.458,4.914,1.718,7.491.659,6.313,11.007,10.908,7.132,15.522-4.874,5.793-13.525-.479-20.537-1.039-6.592-.539-12.985-3.736-19.458-5.753a3.416,3.416,0,0,0-4-.22c-1.578,10.668,10.468,7.591,14.124,14.244-6.493,4.395-8.83,17.84-21.276,8.47a15.243,15.243,0,0,0-3.256,8.251,55.515,55.515,0,0,1-3.516,12.765c-14.364,25.97-29.826,33.422-58.813,28.787-6.193-.979-11.807-4-18.119-4.255-14.523-1.778-25.97-16.241-27.968-35.42-.759-7.192.819-14.663-1.9-21.555C59.15,253.092,56.293,248.1,54.416,256.747Z" transform="translate(430.824 41.77)" fill="#090b0b"/>
    <path id="Path_4809" data-name="Path 4809" d="M230.2,263.53c-23.313,7.991-45.348,15.762-67.523,23.193-11.627,4-23.753,3.037-35.8,2.857-4.215,0-9.809-4.2-12.526,2.1a18.9,18.9,0,0,0,1.718,19.438,30.125,30.125,0,0,0,15.582,10.168c32.9,10.768,64.047,7.032,93.014-12.166,5.494-3.656,10.868-6.093,4-15.982C224.43,286.983,229.345,274.457,230.2,263.53Z" transform="translate(324.637 262.808)" fill="#fcb185"/>
    <path id="Path_4810" data-name="Path 4810" d="M168.153,241.27c10.328,16.281,10.608,16.281,22.275.9,8.95-11.787,24.832-14.883,42.771-7.891,6.273,2.457,12.106,6.173,19.278,4.815a3.8,3.8,0,0,0-.16-3.876,28.668,28.668,0,0,0-6.513-5.294c-12.666-8.191-7.432-16.561-.24-24.932,5.154-10.628,14.643-18.639,18.459-30.066,1.4-4.2,6.952-9.329-1.7-12.286-6.852,2.337-9.13,9.629-14.9,13.4-17.4,11.327-35.579,13.445-54.977,6.473-4-2.237-8.69-1.578-12.925-2.917l-14.3-9.989C161.96,194.384,168.113,217.757,168.153,241.27Z" transform="translate(185.936 162.148)" fill="#fcb185"/>
    <path id="Path_4811" data-name="Path 4811" d="M277.173,120.811c.18,1.279.34,2.557.519,3.836,14.2-7.491,19.138-21.276,11.747-32.882-7.991-12.446-16.461-14.164-28.527-5.054-13.045,9.849-27.968,11.507-43.271,9.689-16.881-2-28.827-28.927-9.07-43.71,5.634,1.179,7.991-2,9.05-6.812-12.406-.8-7.891-8.65-6.373-15.263-10.708-.559-14.543,7.571-17.14,15.283s-6.592,11.687-15.123,13.2c-8.231,1.438-16.8,5.294-11.986,17.12a13.6,13.6,0,0,0,4.495.34c3.216.22,10.108-2,8.79,1.858-3.536,10.188-.32,21.216-4.315,30.525-4.375,10.208-15.223,11.227-25.331,12.366-15.083,1.678-16.841,5.094-8.87,18.819,2.557,4.415,1.658,9.09,3.6,13.285,11.347,0,16.861-6.393,19.1-16.821,1.259-5.813,3.376-10.668,9.989-4,9.409-1.878,15.982-7.991,20.317-15.822,4.115-7.471,7.012-11.986,17.061-6.892,11.087,5.594,23.194,3.736,34.461-2.317C262.59,98.7,270.78,102.332,277.173,120.811Z" transform="translate(214.439 30.395)" fill="#080a0a"/>
    <path id="Path_4812" data-name="Path 4812" d="M181.5,219.368a13.465,13.465,0,0,0,10.108,5.773c9.989-.639,19.338,4.335,29.426,2.817,25.97-4,42.851-18.679,50.163-43.69,3.316-11.247,6.393-21.376,21.216-19.378a8.85,8.85,0,0,0,3.736-2.6c-1.1-8.43-9.329-5.394-13.724-8.53-4-2.537-8.55-4.415-12.146-7.671-4.635-4.235-12.306-5.074-13.984-12.566-12.745-4-24.612-11.367-38.676-10.568-22.474-1.059-44.449,5.474-66.924,4.555,5.993,18.3,7.611,37.337,9.989,56.316,1.2,9.229,7.471,17.021,14.384,23.973C178.009,210.678,185.68,212.176,181.5,219.368Z" transform="translate(183.951 122.44)" fill="#151515"/>
    <path id="Path_4813" data-name="Path 4813" d="M213.21,84.048c-10.268-7.212,3.1-6.952,3.416-10.808,18.159,2.4,21.975-10.908,27.169-23.733,1.558-4,6.632-6.373,10.089-9.509,4.495-.679,9.729,1.338,13.065-3.576-2-5.254-1.4-11.587-6.852-15.243-12.246,0-19.158,9.649-28.168,15.482-7.611,4.115,3.4,20.437-12.526,19.118,5.134,13.385-8.73,7.751-12.386,12.346.1,8.55-4,15.183-9.589,21.156-4.435,6.872-13.4,1.758-18.479,6.952,1.518,9.11,9.869,1.758,14.8,5.993-7.871,8.37-14.823,16.321-19.078,27.089-5.554,13.984-3.116,26.67.5,39.954a4.235,4.235,0,0,0,6.393,0,5.993,5.993,0,0,1,6.273-6.473c4.415-5.634,8.111-10.948-1.279-15.8a7.312,7.312,0,0,1-4-9.229c1.778-4.495,6.153-3.456,9.529-3.216,8.73.679,16.361-2,23.793-6.213,5.993-3.416,10.808-9.329,8.93-15.043-3.776-11.467-.34-20.237,7.991-29.546-7.991-3.376-13.724-5.014-19.618.3,2,8.95-14.523,11.367-5.993,22.614C200.1,95.915,214.189,92.738,213.21,84.048Z" transform="translate(171.804 21.01)" fill="#262a2a"/>
    <path id="Path_4814" data-name="Path 4814" d="M37.591,196.392Q29.6,227.856,21.749,259.32c41.852,8.47,91.9-37.357,87.58-80.308-1.678-16.981-10.948-18.439-25.231-17.38C59.267,163.449,55.391,188.321,37.591,196.392Z" transform="translate(628.122 160.879)" fill="#faaf84"/>
    <path id="Path_4815" data-name="Path 4815" d="M365.458,358.356c22.414,1.618,38.1-6.892,42.591-30.246,7.452,2.9,8.87,10.888,20.856,11.687-15.083-12.106-18.878-25.611-17.14-40.813l-3.376-4.275c-11.227-4-19.977-15.722-34.121-10.808l-3.836,3.037c4.954,11.247,18.8,9.469,26.51,18.419-5.074,3.616-12.586-2.537-16.381,3.876l-7.192,3.056c3.176,9.649,13.984,4.435,20.277,10.848-16.481,1.4-33.062-2.457-47.406,6.932l5.993,6.892c11.747,4.275,24.692-2.657,37.258,3.756C382.479,348.927,360.743,336.321,365.458,358.356Z" transform="translate(-339.435 281.952)" fill="#200501"/>
    <path id="Path_4816" data-name="Path 4816" d="M73.913,96c-3.536,1.378-8.231,5.354-9.01-2.178-.659-6.413-4.854-9.989-8.77-13.984-4.675-4.854-8.37-7.791-11.507,1.778-4,11.986-13.6,5.254-21.116,5.194,3.6,10.588,8.95,15.5,18.839,5.873,2.178-2.8,4.954-7.212,6.413,0,2.757,13.445-7.691,22.474-20.7,18.1a108.218,108.218,0,0,1-12.805-6.353c13.585,22.514,29.267,25.191,58.713,10.828Z" transform="translate(676.704 75.02)" fill="#080b0b"/>
    <path id="Path_4817" data-name="Path 4817" d="M77.036,171.989c-4.175-.36-11.107-2-9.849-5.154,6.772-16.641-3.017-13.984-12.686-11.986-6.612,1.358-7.731-2.977-9.03-7.891-1.458-5.474-2.777-11.307-5.773-15.982-2.357-3.636-7.252-7.032-12.126-4.455a19.757,19.757,0,0,0-8.57,8.73c-2.757,6.373,4.695,6.153,7.372,7.531,10.148,5.194,14.5,11.167,10.108,23.154-5.254,14.344,10.528,10.128,15.582,15.6C62.333,183.5,71.842,183.5,77.036,171.989Z" transform="translate(667.368 125.21)" fill="#090c0c"/>
    <path id="Path_4818" data-name="Path 4818" d="M170.573,129.732c13.6-8.83,27.968-6.493,41.952-2,10.348,3.376,20.237,8.171,30.405,12.186,3.6,1.438,7.991,5.634,11.007.939s.7-9.989-3.536-13.984c-23.973-22.634-68.582-21.136-90.2,3.1Z" transform="translate(205.811 110.432)" fill="#1e1e1d"/>
    <path id="Path_4819" data-name="Path 4819" d="M140.546,23.031c-5.993,18.938-22.574,19.777-38.256,22.734l6.632,5.594c11.707,4.155,21.3-2.337,30.485-7.292,20.9-11.287,32.563-8.131,41.333,12.745,9.209-2.857,11.587-7.991,7.751-16.681-5.634-12.865-17.979-19.278-33.262-16.541-4.3.779-8.79,4-5.574-4.215-5.134-2.7,2-11.247-5.993-12.586C140.886,11.9,141.245,17.558,140.546,23.031Z" transform="translate(386.566 6.653)" fill="#080b0b"/>
    <path id="Path_4820" data-name="Path 4820" d="M359.328,315.65c17.061.739,34.141-5.294,51.262.14,2.917.919,4.715-1.6,5.094-4.515.479-4,0-7.072-4.994-7.991-8.131-1.478-16.162-3.576-24.232-5.414C372.533,296.273,359.189,295.713,359.328,315.65Z" transform="translate(-352.503 296.37)" fill="#faae82"/>
    <path id="Path_4821" data-name="Path 4821" d="M387.462,307.135c1.538,0,3.1-.18,4.635-.1,6.912.36,17.18,7.991,19.738-1,2.457-8.59-10.348-8.77-16.521-12.446-5.694-3.4-11.986-5.873-17.979-8.75-11.387.46-15.782,8.231-19.258,17.979Z" transform="translate(-346.315 284.069)" fill="#f8ac80"/>
    <path id="Path_4822" data-name="Path 4822" d="M377.845,332.9c2-8.43,4.954-13.824,15.682-9.709,6.612,2.537,14.923.619,15.263-8.331s-7.991-6.313-13.165-6.153c-10.368.28-21.016-1.578-31.045,2.8-6.672,13.844,4.135,18.439,12.785,24.192C377.505,334.762,377.685,333.743,377.845,332.9Z" transform="translate(-351.821 307.404)" fill="#f6ab7f"/>
    <path id="Path_4823" data-name="Path 4823" d="M374.16,290.242c12.226.9,20.816,13.3,34.121,10.808-.679-15.263-11.147-21.5-23.973-23.034-10.208-1.2-23.653-6.493-27.808,11.487C362.453,290.641,368.626,287.026,374.16,290.242Z" transform="translate(-339.306 275.611)" fill="#f7ab7f"/>
    <path id="Path_4824" data-name="Path 4824" d="M75.727,159.677c-6.433-.5-13.385,2.437-19.1-2.837-11.387,8.33-4.695,20.2-5.654,30.465-.28,3.076,3.136,2.937,5.993,2.217C67.416,186.926,76.586,172.542,75.727,159.677Z" transform="translate(605.729 156.361)" fill="#252929"/>
    <path id="Path_4825" data-name="Path 4825" d="M203.057,23.031c4.655-4.715,2.757-10.688,3.116-16.241-9.05,17.32-16.461,20.177-39.954,14.583-14.8-3.5-29.087-5.654-40.654,7.571,11.027-2.317,22.315-6.473,33.142-.28C175.089,38.054,189.093,31.422,203.057,23.031Z" transform="translate(324.055 6.653)" fill="#565a5a"/>
    <path id="Path_4826" data-name="Path 4826" d="M70.961,19.41c14.264,11.167-1.678,15.343-8.311,25.151,24.392-10.248,41.692-5.534,55.477,17.24-1.678-23.034-17.6-26.849-31.2-33.022C82.827,23.625,77.993,19.63,70.961,19.41Z" transform="translate(537.878 19.244)" fill="#616565"/>
    <path id="Path_4827" data-name="Path 4827" d="M190.55,128.247c4.155,2.377,8.75,4.455,13.385,3.156,17.22-4.795,35.06-3.676,52.5-6.093a5.194,5.194,0,0,0-2.957-3.057,244.161,244.161,0,0,0-62.928,5.993Z" transform="translate(144.061 121.706)" fill="#323232"/>
    <path id="Path_4828" data-name="Path 4828" d="M174.83,36.939c2.957-.14,6.173,8.47,7.871,1.738,2.877-11.547,13.445-11.727,20.3-17.22C189.753,19.619,178.686,21.757,174.83,36.939Z" transform="translate(228.903 20.733)" fill="#535757"/>
    <path id="Path_4829" data-name="Path 4829" d="M222.22,95.23h-6.393c-5.693,6.652,0,13.7-3.017,23.154C224.218,111.252,227.953,104.879,222.22,95.23Z" transform="translate(131.15 94.891)" fill="#272b2b"/>
    <path id="Path_4830" data-name="Path 4830" d="M191.935,50.866c4,2.817,8.091-.12,11.986.36,5.634.7,5.674-4.235,6.632-6.752,1.878-5.094-5.873-2-6.253-5.993C196.53,38.959,191.835,42.515,191.935,50.866Z" transform="translate(186.886 38.271)" fill="#464a4a"/>
    <path id="Path_4831" data-name="Path 4831" d="M100.42,11.518c10.548,5.074,25.731.859,31.464,15.662C128.068,8.562,121.316,5.205,100.42,11.518Z" transform="translate(448.667 8.457)" fill="#4b4e4e"/>
    <path id="Path_4832" data-name="Path 4832" d="M170.64,123.617l2.957,3.057c14.264-1.558,25.97,8.45,39.715,8.95-12.326-10.388-27.788-11.787-42.671-14.883Z" transform="translate(226.96 120.343)" fill="#0d0b09"/>
    <path id="Path_4833" data-name="Path 4833" d="M206.2,62.222c7.092.18,15.1,2.8,18.479-6.952C219.465,60.084,208.6,49.916,206.2,62.222Z" transform="translate(144.553 55.022)" fill="#505454"/>
    <path id="Path_4834" data-name="Path 4834" d="M206.3,359.738c0,16.921-10.728,32.223-22.095,32.543-9.269.26-9.589-5.993-9.509-12.586.22-15.123,11.986-31.784,22.374-31.964C206.518,347.552,205.879,354.484,206.3,359.738Z" transform="translate(272.894 346.814)" fill="#030403"/>
    <path id="Path_4835" data-name="Path 4835" d="M147.913,358.858c.639-4.1-.939-10.748,6.872-10.828,7.172,0,17.18,19.258,16.861,31.524-.14,5.014-.679,9.629-7.491,9.309C155.724,388.464,147.673,374.04,147.913,358.858Z" transform="translate(246.177 347.115)" fill="#040804"/>
    <path id="Path_4836" data-name="Path 4836" d="M86.535,104.044c-8.49,5.154-13.984.579-18.839-5.873-3.676-6.113-7.471-12.386-10.948-18.7-5.134-9.19-12.106-15.4-26.769-15.562,17.979,7.312,12.686,23.973,20.577,35.06l3.4-9.609c7.312,10.808,12.626,23.513,28.228,21.456C85.656,110.357,92.189,110.936,86.535,104.044Z" transform="translate(632.517 63.643)" fill="#565a5a"/>
    <path id="Path_4837" data-name="Path 4837" d="M178.9,42.86c-.7-19.378-11.187-25.771-31.484-20.1-13.844,3.9-24.971,15.1-40.334,14.643,14.8,7.731,29.187-4.894,43.77.479,1-6.173-5.873-4.834-5.893-8.93C160.8,22.584,170.108,32.113,178.9,42.86Z" transform="translate(388.348 20.605)" fill="#4f5353"/>
    <path id="Path_4838" data-name="Path 4838" d="M112.549,87.239c-7.651-3.876-11.567-11.527-18.119-18.5-.2,3.676-.34,6.173-.479,8.67,3.336,11.147,14.683,16.761,18.858,27.569,1.578,4,5.394,2.178,8.81-2.477,5.034-6.812,13.545.4,19.977-4.715C131.687,94.67,120.56,94.91,112.549,87.239Z" transform="translate(451.881 68.462)" fill="#585c5c"/>
    <path id="Path_4839" data-name="Path 4839" d="M96.894,62.583c1.039-8.211,1.458-14.863-4.555-20.137-4-3.516-7.791-7.991-13.525-3.756-5.014,3.7-3.416,9.489-3.256,14.623,0,2.517,1.638,4.135,4,2.357C88.5,48.9,90.661,59.427,96.894,62.583Z" transform="translate(533.44 36.762)" fill="#070909"/>
    <path id="Path_4840" data-name="Path 4840" d="M177.169,63.848C166.482,45.169,148.382,44.49,130.023,44.43l-5.993,1.079c17.78,4.335,38.8,2.277,46.867,24.832l-.16-.18c1.7,2.257,3.416,4.515,6.513,8.57Z" transform="translate(356.135 44.207)" fill="#5a5e5e"/>
    <path id="Path_4841" data-name="Path 4841" d="M170.19,39.077l-9.05,6.812c.3,5.993.38,6.333,5.713,5.294,2.837-.559,3.516.859,4.555,2.577,5.713,9.409,14.543,8.67,25.97,7.072-11.167-4.815-24.432-5.634-19.837-22.075C178.56,35.222,172.847,39.8,170.19,39.077Z" transform="translate(261.871 37.194)" fill="#626666"/>
    <path id="Path_4842" data-name="Path 4842" d="M95.21,96.7c.16-5.873,2.7-13.984-8.49-6.972-3.576,2.217-8.99,1.458-13.585,2-.519,5.214,4.635,4.615,8.59,7.412L67.3,101.473c12.885,10.328,19.817.28,27.848-4.495Z" transform="translate(551.146 86.691)" fill="#595d5d"/>
    <path id="Path_4843" data-name="Path 4843" d="M122.4,65.08c8.53-4.535,9.589-10.428,6.473-17.64-4.455-10.248-12.845-12.805-25.131-11.787A179.253,179.253,0,0,1,118.88,47.14C123.615,51.635,120.259,58.268,122.4,65.08Z" transform="translate(443.451 35.244)" fill="#585c5c"/>
    <path id="Path_4844" data-name="Path 4844" d="M80.2,55.6c19.757,3.476,29.526,12.606,28.647,31.284,6.972-9.989,7.491-13.325,2.677-20.856C104.968,55.6,95.519,52.349,80.2,55.6Z" transform="translate(506.268 54.148)" fill="#5b5f5f"/>
    <path id="Path_4845" data-name="Path 4845" d="M45.911,96.31c.939,8.231-13.045,16.721,1.538,23.753,4.854-1.259,1.279-7.991,4.755-11.027,4.954.519,5.793,5.753,10.308,8.47C62.432,105.679,52.5,102.543,45.911,96.31Z" transform="translate(637.203 95.969)" fill="#494d4d"/>
    <path id="Path_4846" data-name="Path 4846" d="M37,49.786c24.472,4.035,24.472,4.035,38.456,15.862C70.781,49.247,56.8,42.554,37,49.786Z" transform="translate(631.79 46.662)" fill="#595d5d"/>
    <path id="Path_4847" data-name="Path 4847" d="M151.68,30.82c7.991-3.516,15.982-3.516,25.371.1C165.964,18.155,163.167,18.195,151.68,30.82Z" transform="translate(301.097 21.178)" fill="#4a4e4e"/>
    <path id="Path_4848" data-name="Path 4848" d="M103.43,81.048c.459-16.961-1.279-18.219-16.381-11.866C94.32,71.7,102.591,71.7,103.43,81.048Z" transform="translate(503.771 65.383)" fill="#070808"/>
    <path id="Path_4849" data-name="Path 4849" d="M120.108,31.708c5.074,4,12.566.32,15.682,6.792,1.578,3.256,4,3.436,5.514.32a5.873,5.873,0,0,0-1.3-5.454C134.092,28.692,127.44,30.39,120.108,31.708Z" transform="translate(399.712 30.099)" fill="#4f5353"/>
    <path id="Path_4850" data-name="Path 4850" d="M59.674,69.186c-7.531-8.75-13.125-11.367-22.554-4.395Z" transform="translate(647.332 60.544)" fill="#585c5c"/>
    <path id="Path_4851" data-name="Path 4851" d="M39.43,60.245a27.269,27.269,0,0,0,19.977,0C52.275,54.252,46.6,54.252,39.43,60.245Z" transform="translate(642.985 55.501)" fill="#070808"/>
    <path id="Path_4852" data-name="Path 4852" d="M133.32,58.071c-2.457-.3-6.692-4-5.993,2.337a42.312,42.312,0,0,0,5.753,16.341V57.891Z" transform="translate(393.632 56.477)" fill="#5a5e5e"/>
    <path id="Path_4853" data-name="Path 4853" d="M80.942,165.947c7.312,2.2,3.816,8.33,3.556,12.206-1.3,20.6,7.771,35.739,22.674,48.744,5.074,4.395,7.332,3.716,9.13-2.217,1.818-5.494-2.178-8.67-5.214-11.986A46.787,46.787,0,0,1,98.2,183.827c0-2.837-.16-5.654-.14-8.47a24.752,24.752,0,0,1,2.617-11.707,19.5,19.5,0,0,1,12.646-9.529c25.671-2.877,50.642-1.259,73.916,11.487a29.346,29.346,0,0,1,9.05,8.69,7.991,7.991,0,0,0,5.354,3.076c4.814,3.176,1.618,8.83,4.575,13.984,7.511-8.31,14.823-16.3,22.075-24.392-5.873-6.772-15.522-4.914-20.517-11.547,1.438-5.614-2.537-5.773-6.253-6.213-23.313-8.95-46.807-17.16-72.337-16.122-5.674.22-11.487-.24-16.661,2.937,2,3.3,5.474,4,8.83,4.874,11.467-.519,23.094,1.458,32.643-.619-15.982,4.135-34.441-3.1-52.161,1.818-1.6.38-3.176.8-4.755,1.219-6.572,4.595-15.5,3.3-21.755,8.69l-.16.18c-1.638,2,0,4.555-.8,6.712Z" transform="translate(404.297 132.571)" fill="#171616"/>
    <path id="Path_4854" data-name="Path 4854" d="M179.059,159.517l6.253,6.213,4-.719c-16.941-45.208-61.29-45.168-96.25-39.954-6.213.919-11.367,5.334-10.268,11.727s7.811,3.556,11.986,3.456c15.682-.42,31.4-2.477,47.006,0C156.285,142.416,170.469,145.793,179.059,159.517Z" transform="translate(426.763 122.34)" fill="#1f1f1e"/>
    <path id="Path_4855" data-name="Path 4855" d="M198.311,137.8,191.5,134.62c-20.876,6.153-41.752,9.13-62.589-.14a19.757,19.757,0,0,0,9.529,9.869c12.646,1.518,25.291,5.993,37.957,0l-.18.12C183.348,141.512,191.179,140.833,198.311,137.8Z" transform="translate(325.325 134.052)" fill="#0d0b09"/>
    <path id="Path_4856" data-name="Path 4856" d="M121.327,209.388c-7.531,27.089,1.338,50.682,17.1,71.918,6.912,9.289,15.882,13.265,28.268,4,8.99-6.772,21.116-2.557,28.388,5.993s15.542,10.188,25.171,8.55c22.894-4,52.58-35.38,55.936-58.613.659-4.635,1.279-9.11-3.436-12.126-.18-.12-.879.3-1.159.639a5.994,5.994,0,0,0-.679,1.4c-8.61.14-14.224,5.094-19.6,11.247-23.453,26.889-67.523,30.365-94.792,7.751-7.112-5.993-9.989-14.523-14.364-22.215-3.536-6.213-4.375-14.224-11.607-18.1a11.327,11.327,0,0,0-9.23-.44Z" transform="translate(267.583 208.014)" fill="#fbb084"/>
    <path id="Path_4857" data-name="Path 4857" d="M121.49,214.573c8.271.519,7.591,8.271,8.95,12.885,14.8,50.422,95.751,58.593,120.063,17.979,3.876-6.453,12.306-5.334,15-12.086a8.93,8.93,0,0,1-5.334-6.293,335.378,335.378,0,0,0-43.43,1.7c-15.143-1.039-30.126-3.356-45.228-4.715l-3.8-.7c-11.307-6.193-24.073-8.87-35.48-15.023C124.886,204.424,123.248,206.062,121.49,214.573Z" transform="translate(272.953 205.726)" fill="#060303"/>
    <path id="Path_4858" data-name="Path 4858" d="M175.974,214.34c.14-9.989,4.655-8.111,10.408-4,10.728,7.571,22.974,11.087,35.819,12.865-14.5-15.762-40.634-21.755-51.761-11.767Z" transform="translate(218.47 205.959)" fill="#db9a74"/>
    <path id="Path_4859" data-name="Path 4859" d="M125.33,220.973c14.743.12,29.686,2.957,44.07-2.7-14.663-5.993-29.406-1.7-44.13-.24-1,.659-1.318,1.318-.979,2S124.97,220.973,125.33,220.973Z" transform="translate(363.726 214.568)" fill="#f1a97f"/>
    <path id="Path_4860" data-name="Path 4860" d="M190.749,221.362v-2.937c-14.8-1.5-29.466-5.334-44.529-2.777a115.989,115.989,0,0,0,44.529,5.713Z" transform="translate(298.306 214.18)" fill="#e8a37b"/>
    <path id="Path_4861" data-name="Path 4861" d="M160.58,200.448a19.646,19.646,0,0,0,.26,2.637c2.637,5.713,7.452,8.091,13.365,8.85l8.59-3c-4-9.15-13.425-7.471-20.656-10.148Z" transform="translate(277.573 198.215)" fill="#84372a"/>
    <path id="Path_4862" data-name="Path 4862" d="M253.39,149.634c4-1.778,1.658-4.335.8-6.712-15.3-2.457-24.192,3-28.088,18.958-8.49,34.92-31.584,48.744-67.423,41.832-3.276-.619-6.153-1.059-8.39,2,29.506,11.687,54.957,4.2,73.017-21.475,8.79-4.775,8.99-14.124,11.507-22.115,1.338-4.215.26-9.17,3.8-12.785Z" transform="translate(225.277 141.912)" fill="#0a0807"/>
    <path id="Path_4863" data-name="Path 4863" d="M197.963,145.83c-9.649,9.649-7.991,24.272-15.3,34.9,3.816,10.388-5.234,16.142-8.89,23.713-2.837,5.993-7.132,11.067-10.788,16.561-4.914,10.328-7.252,20.357,3.236,28.967l5.993,3.316.459-.479c1.678-4-1.478-6.373-3.276-9.19-5.494-11.407-2.377-21.555,4.994-30.725C190.192,193.276,196.964,170.582,197.963,145.83Z" transform="translate(265.921 145.376)" fill="#84372a"/>
    <path id="Path_4864" data-name="Path 4864" d="M141.681,197.584c1.1,3.057,2.178,6.113,3.276,9.19l21.755,8.97a25.531,25.531,0,0,1,20.317-2.757c14.424,3.616,19.738-3.116,16.541-21.016-.32,18.079-10.208,16.082-22.554,14.783C167.312,205.315,152.789,209.67,141.681,197.584Z" transform="translate(293.655 191.411)" fill="#924231"/>
    <path id="Path_4865" data-name="Path 4865" d="M89.68,159.566c-.939,17.98,11.667,28.967,21.775,41.173,34.96,17.26,65.925,7.611,81.487-25.391-9.989-6.553-21.975-5.434-33-7.711-17.32-3.536-34.86-5.853-52.24-9.07C101.686,157.448,95.453,155.071,89.68,159.566Z" transform="translate(409.165 156.452)" fill="#222d31"/>
    <path id="Path_4866" data-name="Path 4866" d="M88.1,164.815c34.341,5.853,68.2,14.743,103.282,15.782,1-4.135,2-8.291,3.037-12.426-30.146-6.932-60.891-10.328-91.256-15.982-5.214-.959-10.528-.939-14.823,3.156Z" transform="translate(410.744 151.203)" fill="#2c4147"/>
    <path id="Path_4867" data-name="Path 4867" d="M87.974,160.1c31.384,2.138,61.929,9.989,92.954,14.344,4.934.679,8.99,1.2,13.125-1.518l.719-9.389c-1.039-1.159-2.1-2.317-3.136-3.5-22.794,1.5-44.329-6.533-66.624-8.73-11.367-1.119-22.295-6.393-33.961-3.6A15.8,15.8,0,0,0,87.974,160.1Z" transform="translate(411.11 146.449)" fill="#3b535e"/>
    <path id="Path_4868" data-name="Path 4868" d="M76.515,160.029H95.053A169.967,169.967,0,0,0,45.39,150.34c10.987,7.811,22.414,4.135,31.125,9.709Z" transform="translate(595.432 149.876)" fill="#282828"/>
    <path id="Path_4869" data-name="Path 4869" d="M188.145,212.467c-5.034-9.21-2.4-19.278-3.236-28.967C170.306,195.526,171.385,205.035,188.145,212.467Z" transform="translate(243.995 182.96)" fill="#a5513d"/>
    <path id="Path_4870" data-name="Path 4870" d="M170.064,146.238c.1,8.91-1.778,18.319,6.233,25.271,22.295,8.87,45.728,11.367,69.4,12.586a31.963,31.963,0,0,0,12.566-25.271c-18.918-11.447-40.953-9.21-61.43-13.824C188.1,143.021,178.634,138.926,170.064,146.238Z" transform="translate(183.406 141.612)" fill="#233134"/>
    <path id="Path_4871" data-name="Path 4871" d="M245.631,169.386c-22.255-8.97-45.948-10.348-69.4-12.586C189.2,185.048,226.113,191.74,245.631,169.386Z" transform="translate(183.473 156.321)" fill="#1f2326"/>
    <path id="Path_4872" data-name="Path 4872" d="M173.588,132.8a17.4,17.4,0,0,0-5.234,13.065c4.575,5.134,10.987,5.554,17.14,6.632,18.519,3.216,37.078,6.233,55.617,9.289,6.333,1.039,12.526,1.818,17.64-3.336.14-4.435,2-9.13-2-12.885C228.486,144.407,201.077,138.354,173.588,132.8Z" transform="translate(185.555 132.376)" fill="#405a66"/>
    <path id="Path_4873" data-name="Path 4873" d="M259.456,151.926c-26.59.38-51.941-7.631-78.131-10.828-4.115-.5-8.191-1.159-12.266-1.758-.14,3.2-.3,6.413-.439,9.609,25.671.839,50.482,7.691,75.774,11.127,4.135.559,8.271.979,12.426,1.458Z" transform="translate(184.85 138.901)" fill="#334951"/>
    <path id="Path_4874" data-name="Path 4874" d="M246.915,144.221c-17.4-14.384-38.336-16.621-59.632-16.581-5.334,0-11.527,1.518-14.483,7.571,11.986,10.268,27.668,6.932,41.313,11.227,6.892,2.158,14.3,2.357,21.476,3.576C240.383,150.814,246.516,152.652,246.915,144.221Z" transform="translate(189.04 127.227)" fill="#5d7f94"/>
    <path id="Path_4875" data-name="Path 4875" d="M246.482,140.44c-15.083,5.993-28.907-2.677-43.391-3.8-10.308-.779-20.477-3.4-30.725-5.214l-2.7,2.737c12.745,13.325,30.625,9.19,46.048,12.586,11.727,2.577,24.732,9.289,37.018.18Q249.579,143.7,246.482,140.44Z" transform="translate(189.473 131.009)" fill="#517081"/>
    <path id="Path_4876" data-name="Path 4876" d="M177.857,139.38H139.9c3.636,6.253,11.986.539,15.862,6.253C163.673,145.673,172.043,146.831,177.857,139.38Z" transform="translate(323.824 138.941)" fill="#333"/>
    <path id="Path_4877" data-name="Path 4877" d="M208.9,52.65c-6.752,8.59-17.021,15.842-9.509,29.646,7.132-7.991,5.993-20.477,12.586-29.087l-3.057-.559Z" transform="translate(176.112 52.408)" fill="#4d5151"/>
    <path id="Path_4878" data-name="Path 4878" d="M49.1,232.336c15.323-8.79,26.869-20.557,32.143-38.3,3.057-10.308,3.456-19.218-3.816-27.628-15.3-.28-17.24,2-12.286,15.123,2,5.554,0,11.327.759,13.764,0-.26.3-3.7.3-7.052,0-4.515-1.179-8.49-5.574-10.268-5.334-2.178-8.75,1.239-11.986,4.954-5.394,6.353-11.107,12.346-11.047,21.655,0,8.77-7.152,14.8-9.629,22.714C30.7,247.119,41.686,232.236,49.1,232.336Z" transform="translate(641.987 165.888)" fill="#dc7c5d"/>
    <path id="Path_4879" data-name="Path 4879" d="M32.472,228.538c5.134-6.652,10.628-13.085,10.108-22.375A11.507,11.507,0,0,1,44.1,200.17c4.375-7.631,8.89-18.439,17.979-17,7.991,1.259,4.495,12.426,5.434,19.4.2,1.5.659,2.957,1.3,5.713,3-8.73,4.175-17.24.939-23.733-6.493-13.005,1.418-13.984,10.348-15.442,3.057-1.179,7.052-3.3,1.059-4.954-5.574-1.558-11.387,1.418-15.982,5.074-13.525,10.788-27.708,21.256-28.088,41.093-.14,7.252-6.772,11.687-8.191,18.4a2.257,2.257,0,0,0,3.576-.18Z" transform="translate(639.175 163.233)" fill="#863629"/>
    <path id="Path_4880" data-name="Path 4880" d="M51.027,196.17l-3.456.14c-4.635,4.755-2.158,9.449,2,11.567,7.991,4,14.883.34,20.936-5.254C64.432,199.107,52.026,214.789,51.027,196.17Z" transform="translate(620.62 195.601)" fill="#a2543f"/>
    <path id="Path_4881" data-name="Path 4881" d="M89.31,152c30.305,10.328,62.629,10.508,93.393,18.579,4.415,1.159,6.672-2,7.272-6.233a10.428,10.428,0,0,0-6.333-9.429c-27.968-.3-54.658-8.91-82.126-12.306C95.143,142.73,91.687,146.665,89.31,152Z" transform="translate(412.77 142.163)" fill="#486573"/>
    <path id="Path_4882" data-name="Path 4882" d="M92.48,144.533c9.17,10.768,22.794,6.772,34.241,9.609,12.885,3.3,26.29,4.375,39.355,6.992,4.575.919,6.812-.6,8.53-4.3C149.035,140.618,121.627,136.8,92.48,144.533Z" transform="translate(421.807 140.24)" fill="#57788b"/>
    <path id="Path_4883" data-name="Path 4883" d="M132.445,136.14c-7.991.38-15.742,1.1-22.135,6.592,19.518-4.575,39.435-3.076,59.292-6.592Z" transform="translate(391.191 135.708)" fill="#3f3f3f"/>
    <path id="Path_4884" data-name="Path 4884" d="M234.635,238.881c1.6-3.057,6.373-3.736,6.193-9.629-37.178.939-74.016-1.239-109.875-15.542-1.338,7.292,4.555,10.348,6.892,14.983C168.55,247.452,200.593,252.606,234.635,238.881Z" transform="translate(279.113 213.101)" fill="#e6e5e5"/>
    <path id="Path_4885" data-name="Path 4885" d="M230.57,231.408c-33.162,5.314-65.246.539-96.71-10.208,2.337,12.586,12.206,17.979,22.534,21.555C182.744,251.945,212.151,254.342,230.57,231.408Z" transform="translate(283.177 220.574)" fill="#5a0303"/>
    <g id="mouth" transform="translate(416.544 749.923)">
      <path id="Path_4886" data-name="Path 4886" d="M190.135,379.326a41.428,41.428,0,0,1-6.113,4.215,22.7,22.7,0,0,1-10.868,3.216,19.616,19.616,0,0,1-8.81-2.4,23.035,23.035,0,0,1-5.194-3.716l2.757-4.695s14.483,13.165,23.633-.5Z" transform="translate(-159.15 -375.45)" fill="#fff"/>
      <path id="Path_4887" data-name="Path 4887" d="M176.355,384.235c-6.173,9.25-12.865,0-12.865,0C170.5,381.2,172.34,382.917,176.355,384.235Z" transform="translate(-154.82 -368.373)" fill="#df94fa"/>
      <path id="Path_4888" data-name="Path 4888" d="M182.626,379.4l-4.275,7.991c-4-1.319-5.853-3.037-12.865,0l-4-7.012A19.976,19.976,0,0,0,171,383.2a22.914,22.914,0,0,0,11.627-3.8Z" transform="translate(-156.815 -371.509)" fill="#1e3520"/>
    </g>
    <g id="eyes" transform="translate(404.777 717.879)">
      <ellipse id="Ellipse_12" data-name="Ellipse 12" cx="4.834" cy="4.834" rx="4.834" ry="4.834" transform="translate(48.944)" fill="#fefefe"/>
      <ellipse id="Ellipse_13" data-name="Ellipse 13" cx="4.834" cy="4.834" rx="4.834" ry="4.834" transform="translate(0)" fill="#fefefe"/>
    </g>
  </g>
</svg>
